<svg width="119" height="119" xmlns="http://www.w3.org/2000/svg" xmlns:xlink="http://www.w3.org/1999/xlink" xml:space="preserve" overflow="hidden"><defs><clipPath id="clip0"><rect x="453" y="484" width="119" height="119"/></clipPath></defs><g clip-path="url(#clip0)" transform="translate(-453 -484)"><path d="M512.474 496.396C486.473 496.395 465.394 517.473 465.393 543.474 465.393 569.475 486.47 590.554 512.471 590.555 538.473 590.555 559.552 569.478 559.552 543.476 559.552 543.475 559.552 543.473 559.552 543.471 559.562 517.483 538.503 496.406 512.514 496.396 512.5 496.396 512.487 496.396 512.474 496.396ZM517.346 568.882C516.821 570.108 515.844 571.084 514.618 571.609 513.988 571.877 513.309 572.014 512.624 572.01 511.256 572.013 509.943 571.472 508.973 570.507 508.506 570.038 508.132 569.485 507.871 568.877 507.602 568.246 507.465 567.566 507.469 566.88 507.465 565.511 508.007 564.197 508.973 563.228 510.978 561.218 514.232 561.214 516.241 563.218 516.245 563.222 516.248 563.225 516.251 563.228L516.251 563.228C516.721 563.7 517.095 564.259 517.353 564.873 517.621 565.508 517.759 566.19 517.756 566.88 517.757 567.567 517.618 568.248 517.346 568.879ZM521.723 547.115C518.336 549.156 516.245 552.802 516.193 556.756L508.755 556.756C508.799 550.244 512.206 544.216 517.762 540.819 522.42 537.899 523.829 531.756 520.909 527.098 517.989 522.44 511.846 521.031 507.188 523.951 504.283 525.772 502.52 528.961 502.521 532.39L495.084 532.39C495.08 522.785 502.864 514.995 512.469 514.992 522.074 514.988 529.863 522.771 529.867 532.376 529.869 538.363 526.792 543.929 521.723 547.112Z" fill="#4472C4"/></g></svg>