<svg width="85" height="85" xmlns="http://www.w3.org/2000/svg" xmlns:xlink="http://www.w3.org/1999/xlink" xml:space="preserve" overflow="hidden"><defs><clipPath id="clip0"><rect x="515" y="420" width="85" height="85"/></clipPath></defs><g clip-path="url(#clip0)" transform="translate(-515 -420)"><path d="M585.833 472.24C584.766 471.287 583.452 470.656 582.041 470.418 576.766 469.636 571.499 471.885 568.417 476.237 567.089 478.045 566.765 480.402 567.557 482.501 568.629 485.006 571.468 486.397 574.824 486.397 576.714 486.38 578.581 485.982 580.314 485.229 584.715 483.348 587.568 479.697 587.596 476.347 587.596 476.331 587.605 476.318 587.605 476.302L587.605 431.953 544.252 441.998 544.207 480.459C543.14 479.504 541.824 478.871 540.411 478.634 537.825 478.202 535.169 478.544 532.777 479.618 527.376 481.926 524.301 486.906 525.93 490.718 526.899 492.741 528.825 494.137 531.049 494.427 531.745 494.56 532.452 494.627 533.161 494.625 535.062 494.605 536.94 494.203 538.683 493.443 541.113 492.456 543.197 490.774 544.673 488.607 545.495 487.398 545.947 485.976 545.974 484.515L545.974 484.508 546.021 443.406 585.833 434.183ZM543.181 487.646C541.897 489.514 540.09 490.962 537.986 491.807 535.92 492.743 533.624 493.047 531.385 492.681 529.742 492.492 528.304 491.49 527.557 490.014 526.311 487.101 528.965 483.165 533.471 481.239 534.993 480.576 536.633 480.226 538.293 480.208 538.89 480.207 539.485 480.262 540.071 480.374 541.715 480.563 543.154 481.566 543.901 483.042 544.448 484.6 544.178 486.329 543.181 487.646ZM579.617 483.594C575.111 485.521 570.432 484.719 569.188 481.802 568.638 480.242 568.909 478.51 569.908 477.192 571.192 475.323 573 473.876 575.103 473.03 576.624 472.364 578.264 472.01 579.924 471.99 580.521 471.988 581.117 472.044 581.704 472.156 583.347 472.345 584.786 473.347 585.532 474.823 586.776 477.735 584.123 481.672 579.617 483.598Z" fill="#168EC7"/></g></svg>