<svg width="96" height="96" xmlns="http://www.w3.org/2000/svg" xmlns:xlink="http://www.w3.org/1999/xlink" xml:space="preserve" overflow="hidden"><defs><clipPath id="clip0"><rect x="964" y="311" width="96" height="96"/></clipPath></defs><g clip-path="url(#clip0)" transform="translate(-964 -311)"><path d="M1012 321C991.007 320.994 973.984 338.007 973.978 359 973.972 379.993 990.985 397.016 1011.98 397.022 1032.97 397.028 1049.99 380.015 1050 359.022 1050 359.018 1050 359.015 1050 359.011 1050.01 338.03 1033.01 321.012 1012.03 321 1012.02 321 1012.01 321 1012 321ZM1012 395.021C992.127 395.032 976.007 378.93 975.996 359.057 975.991 349.839 979.524 340.97 985.866 334.28L1036.73 385.143C1030.06 391.488 1021.21 395.025 1012 395.021ZM1038.14 383.729 987.28 332.866C1001.71 319.204 1024.48 319.827 1038.14 334.256 1051.28 348.131 1051.28 369.854 1038.14 383.729Z" stroke="#C00000" stroke-width="6" fill="#C00000"/></g></svg>