<svg width="96" height="96" xmlns="http://www.w3.org/2000/svg" xmlns:xlink="http://www.w3.org/1999/xlink" xml:space="preserve" overflow="hidden"><defs><clipPath id="clip0"><rect x="230" y="146" width="96" height="96"/></clipPath></defs><g clip-path="url(#clip0)" transform="translate(-230 -146)"><path d="M282.1 228.1 251 215.2 273.8 159.9 305 172.8 282.1 228.1ZM288.8 158 295.7 160.9C296.7 161.3 297.1 162.4 296.7 163.3 296.3 164.3 295.2 164.7 294.3 164.3L287.4 161.4C286.4 161 286 159.9 286.4 159 286.7 158.1 287.8 157.6 288.8 158ZM312.7 163.8 274.7 148.1C273.7 147.7 272.7 148.2 272.3 149.1L242.3 221.7C241.9 222.7 242.4 223.7 243.3 224.1L281.3 239.8C282.3 240.2 283.3 239.7 283.7 238.8L313.6 166.2C314.1 165.3 313.6 164.2 312.7 163.8L312.7 163.8Z" fill="#4472C4"/><path d="M300.4 222.7 298.1 219.3 302.6 216.3 301.3 209.7 306.9 205.9 305.6 199.3 311.2 195.6 310.1 190.3 314 189.5 315.6 197.4 310 201.2 311.3 207.8 305.7 211.5 307.1 218.2Z" fill="#4472C4"/><path d="M241.9 198.6 240.4 190.6 246 186.9 244.6 180.3 250.2 176.5 248.9 169.9 255.6 165.4 257.9 168.7 253.4 171.7 254.7 178.3 249.1 182.1 250.4 188.7 244.8 192.5 245.9 197.8Z" fill="#4472C4"/></g></svg>